<svg width="24" height="24" viewBox="0 0 24 24" fill="none" xmlns="http://www.w3.org/2000/svg">
<path d="M8.51007 3.24C8.70007 3.24 8.89007 3.31 9.04007 3.46C9.33007 3.75 9.33007 4.23 9.04007 4.52L4.03007 9.53C3.74007 9.82 3.26007 9.82 2.97007 9.53C2.68007 9.24 2.68007 8.76 2.97007 8.47L7.98007 3.46C8.13007 3.32 8.32007 3.24 8.51007 3.24Z" fill="currentColor"/>
<path d="M3.5 8.26001H20.5C20.91 8.26001 21.25 8.60001 21.25 9.01001C21.25 9.42001 20.91 9.76001 20.5 9.76001H3.5C3.09 9.76001 2.75 9.42001 2.75 9.01001C2.75 8.60001 3.09 8.26001 3.5 8.26001Z" fill="currentColor"/>
<path d="M20.5001 14.24C20.6901 14.24 20.8801 14.31 21.0301 14.46C21.3201 14.75 21.3201 15.23 21.0301 15.52L16.0201 20.53C15.7301 20.82 15.2501 20.82 14.9601 20.53C14.6701 20.24 14.6701 19.76 14.9601 19.47L19.9701 14.46C20.1101 14.32 20.3101 14.24 20.5001 14.24Z" fill="currentColor"/>
<path d="M3.5 14.24H20.5C20.91 14.24 21.25 14.58 21.25 14.99C21.25 15.4 20.91 15.74 20.5 15.74H3.5C3.09 15.74 2.75 15.4 2.75 14.99C2.75 14.58 3.09 14.24 3.5 14.24Z" fill="currentColor"/>
</svg>
