<svg width="28" height="28" viewBox="0 0 28 28" fill="none" xmlns="http://www.w3.org/2000/svg">
<path d="M18.8884 2.33334H9.11171C4.86504 2.33334 2.33337 4.86501 2.33337 9.11168V18.8767C2.33337 23.135 4.86504 25.6667 9.11171 25.6667H18.8767C23.1234 25.6667 25.655 23.135 25.655 18.8883V9.11168C25.6667 4.86501 23.135 2.33334 18.8884 2.33334ZM20.6384 16.3917C20.5917 16.4967 20.5334 16.59 20.4517 16.6717L17.01 20.1133C16.835 20.2883 16.6134 20.37 16.3917 20.37C16.17 20.37 15.9484 20.2883 15.7734 20.1133C15.435 19.775 15.435 19.215 15.7734 18.8767L17.7217 16.9283H8.16671C7.68837 16.9283 7.29171 16.5317 7.29171 16.0533C7.29171 15.575 7.68837 15.1783 8.16671 15.1783H19.8334C19.95 15.1783 20.055 15.2017 20.1717 15.2483C20.3817 15.3417 20.5567 15.505 20.65 15.7267C20.7317 15.9367 20.7317 16.17 20.6384 16.3917ZM19.8334 12.8217H8.16671C8.05004 12.8217 7.94504 12.7983 7.82837 12.7517C7.61837 12.6583 7.44337 12.495 7.35004 12.2733C7.25671 12.0633 7.25671 11.8183 7.35004 11.6083C7.40837 11.5033 7.46671 11.41 7.54837 11.3283L10.99 7.88668C11.3284 7.54834 11.8884 7.54834 12.2267 7.88668C12.565 8.22501 12.565 8.78501 12.2267 9.12334L10.2784 11.0717H19.8334C20.3117 11.0717 20.7084 11.4683 20.7084 11.9467C20.7084 12.425 20.3117 12.8217 19.8334 12.8217Z" fill="currentColor"/>
</svg>
