<svg width="28" height="28" viewBox="0 0 28 28" fill="none" xmlns="http://www.w3.org/2000/svg">
<path d="M12.9502 26.5416H8.05016C3.4885 26.5416 1.4585 24.5116 1.4585 19.95V15.05C1.4585 10.4883 3.4885 8.45831 8.05016 8.45831H12.9502C17.5118 8.45831 19.5418 10.4883 19.5418 15.05V19.95C19.5418 24.5116 17.5118 26.5416 12.9502 26.5416ZM8.05016 10.2083C4.4335 10.2083 3.2085 11.4333 3.2085 15.05V19.95C3.2085 23.5666 4.4335 24.7916 8.05016 24.7916H12.9502C16.5668 24.7916 17.7918 23.5666 17.7918 19.95V15.05C17.7918 11.4333 16.5668 10.2083 12.9502 10.2083H8.05016Z" fill="currentColor"/>
<path d="M19.9502 19.5416H18.6668C18.1885 19.5416 17.7918 19.145 17.7918 18.6666V15.05C17.7918 11.4333 16.5668 10.2083 12.9502 10.2083H9.3335C8.85516 10.2083 8.4585 9.81165 8.4585 9.33331V8.04998C8.4585 3.48831 10.4885 1.45831 15.0502 1.45831H19.9502C24.5118 1.45831 26.5418 3.48831 26.5418 8.04998V12.95C26.5418 17.5116 24.5118 19.5416 19.9502 19.5416ZM19.5418 17.7916H19.9502C23.5668 17.7916 24.7918 16.5666 24.7918 12.95V8.04998C24.7918 4.43331 23.5668 3.20831 19.9502 3.20831H15.0502C11.4335 3.20831 10.2085 4.43331 10.2085 8.04998V8.45831H12.9502C17.5118 8.45831 19.5418 10.4883 19.5418 15.05V17.7916Z" fill="currentColor"/>
</svg>
