<svg width="32" height="32" viewBox="0 0 32 32" fill="none" xmlns="http://www.w3.org/2000/svg">
<path d="M16 19.6667C15.4533 19.6667 15 19.2133 15 18.6667V12C15 11.4533 15.4533 11 16 11C16.5467 11 17 11.4533 17 12V18.6667C17 19.2133 16.5467 19.6667 16 19.6667Z" fill="currentColor"/>
<path d="M16.0003 24C15.9203 24 15.827 23.9867 15.7337 23.9733C15.6537 23.96 15.5737 23.9333 15.4937 23.8933C15.4137 23.8667 15.3337 23.8267 15.2537 23.7733C15.187 23.72 15.1203 23.6667 15.0537 23.6133C14.8137 23.36 14.667 23.0133 14.667 22.6667C14.667 22.32 14.8137 21.9733 15.0537 21.72C15.1203 21.6667 15.187 21.6133 15.2537 21.56C15.3337 21.5067 15.4137 21.4667 15.4937 21.44C15.5737 21.4 15.6537 21.3733 15.7337 21.36C15.907 21.32 16.0937 21.32 16.2537 21.36C16.347 21.3733 16.427 21.4 16.507 21.44C16.587 21.4667 16.667 21.5067 16.747 21.56C16.8137 21.6133 16.8803 21.6667 16.947 21.72C17.187 21.9733 17.3337 22.32 17.3337 22.6667C17.3337 23.0133 17.187 23.36 16.947 23.6133C16.8803 23.6667 16.8137 23.72 16.747 23.7733C16.667 23.8267 16.587 23.8667 16.507 23.8933C16.427 23.9333 16.347 23.96 16.2537 23.9733C16.1737 23.9867 16.0803 24 16.0003 24Z" fill="currentColor"/>
<path d="M24.08 29.5467H7.91997C5.31997 29.5467 3.3333 28.6 2.31997 26.8933C1.31997 25.1867 1.4533 22.9867 2.71997 20.7067L10.8 6.17334C12.1333 3.77334 13.9733 2.45334 16 2.45334C18.0266 2.45334 19.8666 3.77334 21.2 6.17334L29.28 20.72C30.5466 23 30.6933 25.1867 29.68 26.9067C28.6666 28.6 26.68 29.5467 24.08 29.5467ZM16 4.45334C14.7466 4.45334 13.52 5.41334 12.5466 7.14667L4.47997 21.6933C3.5733 23.32 3.42663 24.8133 4.0533 25.8933C4.67997 26.9733 6.06663 27.56 7.9333 27.56H24.0933C25.96 27.56 27.3333 26.9733 27.9733 25.8933C28.6133 24.8133 28.4533 23.3333 27.5466 21.6933L19.4533 7.14667C18.48 5.41334 17.2533 4.45334 16 4.45334Z" fill="currentColor"/>
</svg>
