<svg width="28" height="28" viewBox="0 0 28 28" fill="none" xmlns="http://www.w3.org/2000/svg">
<path d="M14.0001 20.2417C15.0503 20.2417 15.9017 19.3903 15.9017 18.34C15.9017 17.2898 15.0503 16.4384 14.0001 16.4384C12.9498 16.4384 12.0984 17.2898 12.0984 18.34C12.0984 19.3903 12.9498 20.2417 14.0001 20.2417Z" fill="#6B7280"/>
<path d="M21.3267 11.1183V9.65998C21.3267 6.50998 20.5684 2.33331 14 2.33331C7.43171 2.33331 6.67337 6.50998 6.67337 9.65998V11.1183C3.40671 11.5266 2.33337 13.1833 2.33337 17.255V19.425C2.33337 24.2083 3.79171 25.6666 8.57504 25.6666H19.425C24.2084 25.6666 25.6667 24.2083 25.6667 19.425V17.255C25.6667 13.1833 24.5934 11.5266 21.3267 11.1183ZM14 21.8633C12.0517 21.8633 10.4767 20.2766 10.4767 18.34C10.4767 16.3916 12.0634 14.8166 14 14.8166C15.9367 14.8166 17.5234 16.4033 17.5234 18.34C17.5234 20.2883 15.9484 21.8633 14 21.8633ZM8.57504 11.0133C8.48171 11.0133 8.40004 11.0133 8.30671 11.0133V9.65998C8.30671 6.24165 9.27504 3.96665 14 3.96665C18.725 3.96665 19.6934 6.24165 19.6934 9.65998V11.025C19.6 11.025 19.5184 11.025 19.425 11.025H8.57504V11.0133Z" fill="#6B7280"/>
</svg>
