<svg width="8" height="28" viewBox="0 0 8 28" fill="none" xmlns="http://www.w3.org/2000/svg">
<path d="M7.33317 14C7.33317 14.8841 6.98198 15.7319 6.35686 16.357C5.73174 16.9821 4.88389 17.3333 3.99984 17.3333C3.11578 17.3333 2.26794 16.9821 1.64281 16.357C1.01769 15.7319 0.666504 14.8841 0.666504 14C0.666504 13.1159 1.01769 12.2681 1.64281 11.643C2.26794 11.0179 3.11578 10.6667 3.99984 10.6667C4.88389 10.6667 5.73174 11.0179 6.35686 11.643C6.98198 12.2681 7.33317 13.1159 7.33317 14ZM5.99984 14C5.99966 13.4694 5.78871 12.9606 5.41338 12.5855C5.03806 12.2104 4.52911 11.9998 3.9985 12C3.46789 12.0002 2.95909 12.2111 2.58401 12.5865C2.20894 12.9618 1.99833 13.4707 1.9985 14.0013C1.99868 14.5319 2.20963 15.0408 2.58496 15.4158C2.96028 15.7909 3.46923 16.0015 3.99984 16.0013C4.53045 16.0012 5.03925 15.7902 5.41433 15.4149C5.7894 15.0396 6.00001 14.5306 5.99984 14ZM7.33317 4.084C7.33317 4.96806 6.98198 5.81591 6.35686 6.44103C5.73174 7.06615 4.88389 7.41734 3.99984 7.41734C3.11578 7.41734 2.26794 7.06615 1.64281 6.44103C1.01769 5.81591 0.666504 4.96806 0.666504 4.084C0.666504 3.19995 1.01769 2.3521 1.64281 1.72698C2.26794 1.10186 3.11578 0.750671 3.99984 0.750671C4.88389 0.750671 5.73174 1.10186 6.35686 1.72698C6.98198 2.3521 7.33317 3.19995 7.33317 4.084ZM5.99984 4.084C5.99966 3.5534 5.78871 3.04459 5.41338 2.66951C5.03806 2.29444 4.52911 2.08383 3.9985 2.084C3.46789 2.08418 2.95909 2.29513 2.58401 2.67046C2.20894 3.04578 1.99833 3.55473 1.9985 4.08534C1.99868 4.61595 2.20963 5.12475 2.58496 5.49983C2.96028 5.8749 3.46923 6.08552 3.99984 6.08534C4.53045 6.08516 5.03925 5.87421 5.41433 5.49888C5.7894 5.12356 6.00001 4.61461 5.99984 4.084ZM7.33317 23.916C7.33317 24.8001 6.98198 25.6479 6.35686 26.273C5.73174 26.8981 4.88389 27.2493 3.99984 27.2493C3.11578 27.2493 2.26794 26.8981 1.64281 26.273C1.01769 25.6479 0.666504 24.8001 0.666504 23.916C0.666504 23.0319 1.01769 22.1841 1.64281 21.559C2.26794 20.9339 3.11578 20.5827 3.99984 20.5827C4.88389 20.5827 5.73174 20.9339 6.35686 21.559C6.98198 22.1841 7.33317 23.0319 7.33317 23.916ZM5.99984 23.916C5.99966 23.3854 5.78871 22.8766 5.41338 22.5015C5.03806 22.1264 4.52911 21.9158 3.9985 21.916C3.46789 21.9162 2.95909 22.1271 2.58401 22.5025C2.20894 22.8778 1.99833 23.3867 1.9985 23.9173C1.99868 24.4479 2.20963 24.9568 2.58496 25.3318C2.96028 25.7069 3.46923 25.9175 3.99984 25.9173C4.53045 25.9172 5.03925 25.7062 5.41433 25.3309C5.7894 24.9556 6.00001 24.4466 5.99984 23.916Z" fill="#F9FAFB"/>
</svg>
