<svg width="28" height="28" viewBox="0 0 28 28" fill="none" xmlns="http://www.w3.org/2000/svg">
<path d="M14.1862 13.5567C14.1512 13.5567 14.1279 13.5567 14.0929 13.5567C14.0346 13.545 13.9529 13.545 13.8829 13.5567C10.4996 13.4517 7.94458 10.7917 7.94458 7.51334C7.94458 4.17667 10.6629 1.45834 13.9996 1.45834C17.3362 1.45834 20.0546 4.17667 20.0546 7.51334C20.0429 10.7917 17.4762 13.4517 14.2212 13.5567C14.2096 13.5567 14.1979 13.5567 14.1862 13.5567ZM13.9996 3.20834C11.6312 3.20834 9.69458 5.145 9.69458 7.51334C9.69458 9.84667 11.5146 11.725 13.8362 11.8067C13.8946 11.795 14.0579 11.795 14.2096 11.8067C16.4962 11.7017 18.2929 9.82334 18.3046 7.51334C18.3046 5.145 16.3679 3.20834 13.9996 3.20834Z" fill="currentColor"/>
<path d="M14.1979 26.3083C11.9112 26.3083 9.61288 25.725 7.87454 24.5583C6.25288 23.485 5.36621 22.015 5.36621 20.4167C5.36621 18.8183 6.25288 17.3367 7.87454 16.2517C11.3745 13.93 17.0445 13.93 20.5212 16.2517C22.1312 17.325 23.0295 18.795 23.0295 20.3933C23.0295 21.9917 22.1429 23.4733 20.5212 24.5583C18.7712 25.725 16.4845 26.3083 14.1979 26.3083ZM8.84288 17.7217C7.72288 18.4683 7.11621 19.425 7.11621 20.4283C7.11621 21.42 7.73454 22.3767 8.84288 23.1117C11.7479 25.06 16.6479 25.06 19.5529 23.1117C20.6729 22.365 21.2795 21.4083 21.2795 20.405C21.2795 19.4133 20.6612 18.4567 19.5529 17.7217C16.6479 15.785 11.7479 15.785 8.84288 17.7217Z" fill="currentColor"/>
</svg>
