<svg width="28" height="28" viewBox="0 0 28 28" fill="none" xmlns="http://www.w3.org/2000/svg">
<path d="M18.8884 2.33334H9.11171C4.86504 2.33334 2.33337 4.86501 2.33337 9.11168V18.8767C2.33337 23.135 4.86504 25.6667 9.11171 25.6667H18.8767C23.1234 25.6667 25.655 23.135 25.655 18.8883V9.11168C25.6667 4.86501 23.135 2.33334 18.8884 2.33334ZM9.88171 12.81C10.22 12.4717 10.78 12.4717 11.1184 12.81L13.125 14.8167V7.59501C13.125 7.11668 13.5217 6.72001 14 6.72001C14.4784 6.72001 14.875 7.11668 14.875 7.59501V14.8167L16.8817 12.81C17.22 12.4717 17.78 12.4717 18.1184 12.81C18.4567 13.1483 18.4567 13.7083 18.1184 14.0467L14.6184 17.5467C14.5367 17.6283 14.4434 17.6867 14.3384 17.7333C14.2334 17.78 14.1167 17.8033 14 17.8033C13.8834 17.8033 13.7784 17.78 13.6617 17.7333C13.5567 17.6867 13.4634 17.6283 13.3817 17.5467L9.88171 14.0467C9.54337 13.7083 9.54337 13.16 9.88171 12.81ZM21.28 20.09C18.935 20.8717 16.4734 21.2683 14 21.2683C11.5267 21.2683 9.06504 20.8717 6.72004 20.09C6.26504 19.9383 6.02004 19.4367 6.17171 18.9817C6.32337 18.5267 6.81337 18.27 7.28004 18.4333C11.62 19.88 16.3917 19.88 20.7317 18.4333C21.1867 18.2817 21.6884 18.5267 21.84 18.9817C21.98 19.4483 21.735 19.9383 21.28 20.09Z" fill="#F9FAFB"/>
</svg>
