<svg width="28" height="28" viewBox="0 0 28 28" fill="none" xmlns="http://www.w3.org/2000/svg">
<path d="M18.8884 2.33334H9.11171C4.86504 2.33334 2.33337 4.86501 2.33337 9.11168V18.8767C2.33337 23.135 4.86504 25.6667 9.11171 25.6667H18.8767C23.1234 25.6667 25.655 23.135 25.655 18.8883V9.11168C25.6667 4.86501 23.135 2.33334 18.8884 2.33334ZM9.88171 10.4767L13.3817 6.97668C13.4634 6.89501 13.5567 6.83668 13.6617 6.79001C13.8717 6.69668 14.1167 6.69668 14.3267 6.79001C14.4317 6.83668 14.525 6.89501 14.6067 6.97668L18.1067 10.4767C18.445 10.815 18.445 11.375 18.1067 11.7133C17.9317 11.8883 17.71 11.97 17.4884 11.97C17.2667 11.97 17.045 11.8883 16.87 11.7133L14.8634 9.70668V16.9283C14.8634 17.4067 14.4667 17.8033 13.9884 17.8033C13.51 17.8033 13.1134 17.4067 13.1134 16.9283V9.70668L11.1067 11.7133C10.7684 12.0517 10.2084 12.0517 9.87004 11.7133C9.53171 11.375 9.54337 10.8267 9.88171 10.4767ZM21.28 20.09C18.935 20.8717 16.4734 21.2683 14 21.2683C11.5267 21.2683 9.06504 20.8717 6.72004 20.09C6.26504 19.9383 6.02004 19.4367 6.17171 18.9817C6.32337 18.5267 6.82504 18.27 7.28004 18.4333C11.62 19.88 16.3917 19.88 20.7317 18.4333C21.1867 18.2817 21.6884 18.5267 21.84 18.9817C21.98 19.4483 21.735 19.9383 21.28 20.09Z" fill="#F9FAFB"/>
</svg>
