<svg width="24" height="24" viewBox="0 0 24 24" fill="none" xmlns="http://www.w3.org/2000/svg">
<g clip-path="url(#clip0_57_3235)">
<path d="M23.1085 12.8845C22.9393 15.0111 22.1632 17.0444 20.8723 18.7429C19.5815 20.4413 17.8303 21.7336 15.8267 22.466C13.8231 23.1985 11.6513 23.3404 9.56938 22.8749C7.48748 22.4095 5.58296 21.3561 4.08209 19.8401C2.58121 18.324 1.54707 16.409 1.10253 14.3226C0.657984 12.2361 0.821723 10.0659 1.57429 8.06971C2.32686 6.07355 3.63663 4.33538 5.34798 3.0617C7.05933 1.78802 9.10034 1.03237 11.2285 0.884521" stroke="currentColor" stroke-opacity="0.7" stroke-linecap="round" stroke-linejoin="round"/>
<path d="M16.7828 13.8685C16.4732 14.6653 15.9699 15.3724 15.3184 15.9258C14.6669 16.4792 13.8877 16.8614 13.0514 17.038C12.215 17.2146 11.3478 17.1799 10.5282 16.9371C9.70856 16.6943 8.96241 16.251 8.35718 15.6473C7.75196 15.0436 7.30675 14.2986 7.06182 13.4796C6.81689 12.6607 6.77997 11.7936 6.95438 10.9567C7.1288 10.1199 7.50906 9.33973 8.06077 8.68679C8.61248 8.03385 9.31825 7.52874 10.1142 7.21712M12 12L16.2857 7.71426M16.2857 7.71426L19.7142 8.5714L23.1428 5.14283L19.7142 4.28569L18.8571 0.857117L15.4285 4.28569L16.2857 7.71426Z" stroke="currentColor" stroke-opacity="0.7" stroke-linecap="round" stroke-linejoin="round"/>
</g>
<defs>
<clipPath id="clip0_57_3235">
<rect width="24" height="24" fill="white"/>
</clipPath>
</defs>
</svg>
