<svg width="28" height="28" viewBox="0 0 28 28" fill="none" xmlns="http://www.w3.org/2000/svg">
<path d="M17.5 18.0833C17.5 22.2717 14.105 25.6667 9.91671 25.6667C5.72837 25.6667 2.33337 22.2717 2.33337 18.0833C2.33337 13.895 5.72837 10.5 9.91671 10.5C10.115 10.5 10.325 10.5117 10.5234 10.5233C14.2217 10.815 17.185 13.7783 17.4767 17.4767C17.4884 17.675 17.5 17.885 17.5 18.0833Z" fill="#F9FAFB"/>
<path d="M25.6667 9.91668C25.6667 13.72 22.8667 16.8583 19.2267 17.4067V17.3367C18.865 12.81 15.1901 9.13501 10.6284 8.77334H10.5934C11.1417 5.13334 14.2801 2.33334 18.0834 2.33334C22.2717 2.33334 25.6667 5.72834 25.6667 9.91668Z" fill="#F9FAFB"/>
<path d="M6.52171 2.33334H3.50004C2.85837 2.33334 2.33337 2.85834 2.33337 3.50001V6.52168C2.33337 7.56001 3.59337 8.08501 4.32837 7.35001L7.35004 4.32834C8.07337 3.59334 7.56004 2.33334 6.52171 2.33334Z" fill="#F9FAFB"/>
<path d="M21.4783 25.6667H24.5C25.1416 25.6667 25.6666 25.1417 25.6666 24.5V21.4783C25.6666 20.44 24.4066 19.915 23.6716 20.65L20.65 23.6717C19.9266 24.4067 20.44 25.6667 21.4783 25.6667Z" fill="#F9FAFB"/>
</svg>
