<svg width="20" height="20" viewBox="0 0 20 20" fill="none" xmlns="http://www.w3.org/2000/svg">
<path d="M10 12.2917C9.65833 12.2917 9.375 12.0083 9.375 11.6667V7.5C9.375 7.15833 9.65833 6.875 10 6.875C10.3417 6.875 10.625 7.15833 10.625 7.5V11.6667C10.625 12.0083 10.3417 12.2917 10 12.2917Z" fill="#FFC94B"/>
<path d="M9.99984 15C9.94984 15 9.8915 14.9917 9.83317 14.9833C9.78317 14.975 9.73317 14.9583 9.68317 14.9333C9.63317 14.9167 9.58317 14.8917 9.53317 14.8583C9.4915 14.825 9.44984 14.7917 9.40817 14.7583C9.25817 14.6 9.1665 14.3833 9.1665 14.1667C9.1665 13.95 9.25817 13.7333 9.40817 13.575C9.44984 13.5417 9.4915 13.5083 9.53317 13.475C9.58317 13.4417 9.63317 13.4167 9.68317 13.4C9.73317 13.375 9.78317 13.3583 9.83317 13.35C9.9415 13.325 10.0582 13.325 10.1582 13.35C10.2165 13.3583 10.2665 13.375 10.3165 13.4C10.3665 13.4167 10.4165 13.4417 10.4665 13.475C10.5082 13.5083 10.5498 13.5417 10.5915 13.575C10.7415 13.7333 10.8332 13.95 10.8332 14.1667C10.8332 14.3833 10.7415 14.6 10.5915 14.7583C10.5498 14.7917 10.5082 14.825 10.4665 14.8583C10.4165 14.8917 10.3665 14.9167 10.3165 14.9333C10.2665 14.9583 10.2165 14.975 10.1582 14.9833C10.1082 14.9917 10.0498 15 9.99984 15Z" fill="#FFC94B"/>
<path d="M15.0502 18.4667H4.95022C3.32522 18.4667 2.08356 17.875 1.45022 16.8083C0.825224 15.7417 0.908557 14.3667 1.70022 12.9417L6.75022 3.85833C7.58356 2.35833 8.73356 1.53333 10.0002 1.53333C11.2669 1.53333 12.4169 2.35833 13.2502 3.85833L18.3002 12.95C19.0919 14.375 19.1836 15.7417 18.5502 16.8167C17.9169 17.875 16.6752 18.4667 15.0502 18.4667ZM10.0002 2.78333C9.21689 2.78333 8.45022 3.38333 7.84189 4.46666L2.80022 13.5583C2.23356 14.575 2.14189 15.5083 2.53356 16.1833C2.92522 16.8583 3.79189 17.225 4.95856 17.225H15.0586C16.2252 17.225 17.0836 16.8583 17.4836 16.1833C17.8836 15.5083 17.7836 14.5833 17.2169 13.5583L12.1586 4.46666C11.5502 3.38333 10.7836 2.78333 10.0002 2.78333Z" fill="#FFC94B"/>
</svg>
